Release Info :---

Movie name................: House (1986) x264 480p [Hindi Audio Only] By--=!!Aatif741!!--=[DMRG]=--
Title................: House (1986) 
Taglines..........: HORROR has found a new HOME
Stars............: Jodi Benson, Samuel E. Wright, Rene Auberjonois |
Release Date .........: 28 February 1986 (USA)
Genre............: Comedy | Fantasy | Horror
Runtime..........: 1h 34mn
Language.........: Hindi Audio Only
File size...........: 448 MiB
Video.size.......: 704 x 480
Audio............: MPEG Audio, 128 kbps  , 2 Channel 
Video Codec............: V_MPEG4/ISO/AVC ,  525 Kbps
Frame rate.............. : 23.976 fps
Display aspect ratio............. : 2.000
Source...........: DVDRip 
Rating...........: 6.0/10 
Sample...........: Included (6.37MB)
Release Type.......: Matroska



General Info: ----


Format                                   : Matroska
Format version                           : Version 4 / Version 2
File size                                : 448 MiB
Duration                                 : 1h 34mn
Overall bit rate                         : 666 Kbps
Movie name                               : House (1986) x264 480p [Hindi Audio Only] By--=!!Aatif741!!--=[DMRG]=--
Encoded date                             : UTC 2013-03-15 18:29:34
Writing application                      : mkvmerge v6.0.0 ('Coming Up For Air') built on Jan 20 2013 09:52:00
Writing library                          : libebml v1.3.0 + libmatroska v1.4.0
Attachment                               : Yes


Plot Info: ----

Roger Cobb is a Vietnam vet whose career as a horror novelist has taken a turn for the worse when his son Jimmy mysteriously disappears while visiting his aunt's house.



Cast Info : ----

Director: Steve Miner
Writers: Fred Dekker (story), Ethan Wiley (screenplay)
Stars: William Katt, Kay Lenz, George Wendt 



Video Info:----

Format                                   : AVC
Format/Info                              : Advanced Video Codec
Format profile                           : Baseline@L3.0
Format settings, CABAC                   : No
Format settings, ReFrames                : 1 frame
Codec ID                                 : V_MPEG4/ISO/AVC
Duration                                 : 1h 34mn
Bit rate                                 : 525 Kbps
Width                                    : 720 pixels
Height                                   : 480 pixels
Display aspect ratio                     : 2.000
Original display aspect ratio            : 3:2
Frame rate mode                          : Constant
Frame rate                               : 23.976 fps
Original frame rate                      : 23.000 fps
Standard                                 : NTSC
Color space                              : YUV
Chroma subsampling                       : 4:2:0
Bit depth                                : 8 bits
Scan type                                : Progressive
Bits/(Pixel*Frame)                       : 0.063
Stream size                              : 353 MiB (79%)
Title                                    : House (1986) x264 480p [Hindi Audio Only] By--=!!Aatif741!!--=[DMRG]=--



Audio Info : --------

Format                                   : MPEG Audio
Format version                           : Version 1
Format profile                           : Layer 2
Codec ID                                 : A_MPEG/L2
Codec ID/Hint                            : MP2
Duration                                 : 1h 34mn
Bit rate mode                            : Constant
Bit rate                                 : 128 Kbps
Channel(s)                               : 2 channels
Sampling rate                            : 48.0 KHz
Compression mode                         : Lossy
Delay relative to video                  : 8s 875ms
Stream size                              : 86.1 MiB (19%)
Title                                    : --=!!Aatif741!!--=[DMRG]=--
Language                                 : Hindi


Screen Shot :-----

[img]http://img546.imageshack.us/img546/6521/vlcsnap00011k.jpg[/img]
[img]http://img825.imageshack.us/img825/4916/vlcsnap00004u.jpg[/img]
[img]http://img18.imageshack.us/img18/9443/vlcsnap00010kp.jpg[/img]
[img]http://img825.imageshack.us/img825/4663/vlcsnap00003vy.jpg[/img]
[img]http://img715.imageshack.us/img715/774/vlcsnap00009pf.jpg[/img]